{
	"materials":[{
		"pbrMetallicRoughness":{
			"baseColorFactor":[1.0,
			1.0,
			1.0,
			1.0],
			"metallicFactor":0.0,
			"roughnessFactor":0.5
		},
		"emissiveFactor":[0.0,
		0.0,
		0.0],
		"alphaMode":"OPAQUE",
		"doubleSided":false,
		"name":"Steel___Satin"
	}],
	"asset":{
		"version":"2.0",
		"generator":"Created using the official Cinema 4D glTF Exporter 1.000x284978"
	},
	"scenes":[{
		"nodes":[0]
	}],
	"nodes":[{
		"name":"Factory_Unit_12",
		"mesh":0
	}],
	"meshes":[{
		"name":"Factory_Unit_12",
		"primitives":[{
			"material":0,
			"attributes":{
				"POSITION":1
			},
			"indices":0
		}]
	}],
	"accessors":[{
		"bufferView":0,
		"type":"SCALAR",
		"componentType":5125,
		"count":479448,
		"byteOffset":0,
		"min":[0],
		"max":[83648]
	},
	{
		"bufferView":1,
		"type":"VEC3",
		"componentType":5126,
		"count":83649,
		"byteOffset":0,
		"min":[-317.485595703125,
		0.0,
		-177.6553955078125],
		"max":[317.4858093261719,
		505.39678955078127,
		83.40519714355469]
	}],
	"bufferViews":[{
		"buffer":0,
		"byteOffset":0,
		"byteLength":1917792,
		"target":34963
	},
	{
		"buffer":0,
		"byteOffset":1917792,
		"byteLength":1003788,
		"target":34962
	}],
	"buffers":[{
		"uri":"data:application/octet-stream;base64,",
		"byteLength":2921580
	}]
}